<?xml version="1.0" encoding="UTF-8" standalone="no"?>
<!DOCTYPE svg PUBLIC "-//W3C//DTD SVG 1.1//EN" "http://www.w3.org/Graphics/SVG/1.1/DTD/svg11.dtd">
<svg version="1.1" xmlns="http://www.w3.org/2000/svg" xmlns:xlink="http://www.w3.org/1999/xlink" preserveAspectRatio="xMidYMid meet" viewBox="0 0 300 300" width="32" height="32"><defs><path d="M0.91 0L300 0L300 300L0.91 300L0.91 0Z" id="a6wqgdVS9"></path><path d="M112.5 76.05L142.48 75L150.1 292.65L120.12 293.7L112.5 76.05Z" id="b5q1hIw1u"></path><path d="M138.52 5.84L167.7 12.83L142.92 116.32L113.74 109.34L138.52 5.84Z" id="a4Qt5TKZPb"></path><path d="M230.39 -28.8L254.96 -11.59L43.32 290.63L18.75 273.42L230.39 -28.8Z" id="ayOlLHg1X"></path><path d="M159.37 4.69L206.25 4.69L206.25 296.08L159.37 296.08L159.37 4.69Z" id="eIQZBAFBH"></path><path d="M213.75 187.5L243.75 187.5L243.75 294.38L213.75 294.38L213.75 187.5Z" id="h23vrp3E4F"></path><path d="M243.75 187.29L223.07 209.02L56.46 50.53L77.14 28.8L243.75 187.29Z" id="cbLfOMMhK"></path><path d="M16.44 206.25L60.94 206.25L60.94 294.5L16.44 294.5L16.44 206.25Z" id="d8nYzSKOv"></path><path d="M127.34 0L247.09 0L247.09 4.69L127.34 4.69L127.34 0Z" id="b2po7GDTQc"></path></defs><g><g><g><use xlink:href="#a6wqgdVS9" opacity="1" fill="#f5f5f5" fill-opacity="1"></use></g><g><use xlink:href="#b5q1hIw1u" opacity="1" fill="#c12c2d" fill-opacity="1"></use></g><g><use xlink:href="#a4Qt5TKZPb" opacity="1" fill="#c12c2d" fill-opacity="1"></use></g><g><use xlink:href="#ayOlLHg1X" opacity="1" fill="#369742" fill-opacity="1"></use></g><g><use xlink:href="#eIQZBAFBH" opacity="1" fill="#e0a42d" fill-opacity="1"></use></g><g><use xlink:href="#h23vrp3E4F" opacity="1" fill="#354d96" fill-opacity="1"></use></g><g><use xlink:href="#cbLfOMMhK" opacity="1" fill="#354d96" fill-opacity="1"></use></g><g><use xlink:href="#d8nYzSKOv" opacity="1" fill="#f5f5f5" fill-opacity="1"></use></g><g><use xlink:href="#b2po7GDTQc" opacity="1" fill="#f5f5f5" fill-opacity="1"></use></g></g></g></svg>